<!-- Created with Inkscape (http://www.inkscape.org/) -->

<svg
   xmlns:dc="http://purl.org/dc/elements/1.1/"
   xmlns:cc="http://creativecommons.org/ns#"
   xmlns:rdf="http://www.w3.org/1999/02/22-rdf-syntax-ns#"
   xmlns:svg="http://www.w3.org/2000/svg"
   xmlns="http://www.w3.org/2000/svg"
   xmlns:sodipodi="http://sodipodi.sourceforge.net/DTD/sodipodi-0.dtd"
   xmlns:inkscape="http://www.inkscape.org/namespaces/inkscape"
   width="210mm"
   height="210mm"
   viewBox="0 0 210 210"
   version="1.1"
   id="svg874"
   inkscape:version="0.92.3 (2405546, 2018-03-11)"
   sodipodi:docname="carpoollogo.svg">
  <defs
     id="defs868" />
  <sodipodi:namedview
     id="base"
     pagecolor="#ffffff"
     bordercolor="#666666"
     borderopacity="1.0"
     inkscape:pageopacity="0.0"
     inkscape:pageshadow="2"
     inkscape:zoom="0.35"
     inkscape:cx="84.285714"
     inkscape:cy="514.28571"
     inkscape:document-units="mm"
     inkscape:current-layer="layer1"
     showgrid="false"
     inkscape:window-width="1920"
     inkscape:window-height="1013"
     inkscape:window-x="-9"
     inkscape:window-y="-9"
     inkscape:window-maximized="1" />
  <metadata
     id="metadata871">
    <rdf:RDF>
      <cc:Work
         rdf:about="">
        <dc:format>image/svg+xml</dc:format>
        <dc:type
           rdf:resource="http://purl.org/dc/dcmitype/StillImage" />
        <dc:title></dc:title>
      </cc:Work>
    </rdf:RDF>
  </metadata>
  <g
     inkscape:label="Ebene 1"
     inkscape:groupmode="layer"
     id="layer1"
     transform="translate(0,-87)">
    <g
       id="g1431"
       transform="translate(0.7835325,58.158523)">
      <path
         id="path832-7-4"
         d="m 141.22766,71.744522 a 54.828678,97.667828 68.539564 0 0 -17.35808,1.124582 c 5.87194,5.870958 11.74389,11.741488 17.6159,17.612511 13.56944,2.323639 27.18718,4.384199 40.71475,6.942546 1.44113,0.0034 2.2843,1.299004 2.65371,2.537517 0.35088,3.754552 -0.0368,7.549392 -0.045,11.317052 -0.23536,1.71255 0.3071,4.06379 -1.33577,5.21667 -1.68837,0.71315 -3.63201,0.28625 -5.42021,0.42236 -1.30775,-0.15559 -2.90038,0.31302 -4.03525,-0.23663 -0.0998,-2.36877 -0.63289,-4.7918 -1.69535,-6.95018 -2.90281,-5.7667 -10.09409,-8.41243 -16.17497,-6.8043 -5.19849,1.11986 -9.53185,5.53312 -10.26626,10.86245 -0.3272,0.96736 0.1793,2.43475 -0.72003,3.02009 -23.53536,0.0348 -47.07071,0.0699 -70.606063,0.1052 -1.168032,-0.23723 -2.853946,0.50176 -3.690085,-0.39521 0.0097,-4.00961 -1.54784,-8.06626 -4.645045,-10.71914 -2.230126,-1.86516 -5.06834,-3.09491 -7.96621,-3.26943 -4.277657,-0.39999 -8.741746,0.95254 -11.700393,4.11838 -2.741761,2.60454 -3.642319,6.50414 -3.869038,10.12038 -2.059103,0.3501 -4.259614,0.0471 -6.372626,0.14837 -1.274774,0.36496 -1.919997,-0.70338 -2.618934,-1.5656 a 54.828678,97.667828 68.539564 0 0 -21.797862,42.58228 54.828678,97.667828 68.539564 0 0 13.328752,26.10875 c 0.439736,-3.10308 1.934157,-6.05851 2.79364,-9.084 1.759255,-0.70002 3.92789,-0.20101 5.849346,-0.42657 2.371117,0.43043 0.70774,-3.00181 1.144091,-4.42371 -0.273715,-1.55443 0.406184,-4.05204 -0.441862,-5.03857 -3.21261,-0.23928 -6.593235,0.0737 -9.708204,-0.48765 0.692883,-3.07995 2.051785,-6.06807 2.955629,-9.13404 1.196144,-1.29033 3.659751,-0.25683 5.360841,-0.58859 1.529619,-0.44837 4.323003,0.98024 4.911351,-0.86589 4.304888,-9.6073 12.621028,-17.3253 22.479754,-21.01 4.280821,-1.79057 8.876668,-2.47494 13.484794,-2.55702 0.658306,-0.0115 1.31646,-0.0115 1.974375,0 1.118801,-0.008 2.23767,-0.003 3.35594,0.0348 1.328115,0.23788 3.446324,-0.28022 4.170108,1.14322 -0.651932,3.91327 -1.342458,7.91608 -2.280542,11.75129 -2.890551,-0.41558 -5.975955,-0.41497 -8.89233,-0.21795 -7.746526,0.94747 -15.078847,5.10404 -19.609786,11.52566 6.766537,0.46156 13.680406,-0.0704 20.491811,0.39606 1.511441,0.0588 0.524593,1.80341 0.287506,2.61214 -0.95069,2.33933 -1.393761,5.08866 -2.782622,7.1139 -7.436852,0.10061 -14.873279,0.20115 -22.310131,0.3019 -0.494933,3.11985 -0.397805,6.36357 0.179795,9.42239 h 23.205727 c 2.197656,-0.61614 3.207812,0.59169 1.897205,2.52989 -1.024525,2.43782 -1.415443,5.33997 -2.840294,7.48449 -5.878636,0.1441 -11.757616,0.28796 -17.636247,0.43253 3.323121,4.33742 7.748845,7.90848 12.903003,9.82864 1.802221,0.85919 3.709195,1.28986 5.657678,1.50031 a 54.828678,97.667828 68.539564 0 0 29.131418,-3.7749 c -5.885946,-3.49081 -10.629285,-8.83782 -13.762993,-14.9113 -1.264678,-0.73242 -3.008761,-0.18201 -4.425385,-0.3774 -1.974966,-0.17673 -4.214395,0.3273 -6.041867,-0.42323 0.324494,-2.55214 1.560683,-5.00985 2.239829,-7.51671 1.700452,-0.70211 3.825008,-0.0962 5.687362,-0.29853 -0.04095,-2.01648 -0.08242,-4.03301 -0.122973,-6.0495 0.662591,-2.5462 -2.511984,-1.25921 -4.03696,-1.61987 -1.134406,-0.4211 -4.510916,0.88493 -3.913132,-1.1441 1.017326,-2.32507 1.396289,-5.13118 2.816539,-7.15288 2.464965,-0.14623 5.27829,0.2805 7.526892,-0.2222 5.088593,-11.49621 17.251588,-19.61036 29.886218,-19.36128 0.401,-8.7e-4 0.80245,-0.007 1.20345,-0.003 1.85035,0.21219 4.05018,-0.34282 5.71026,0.55976 0.0414,2.56863 -0.81798,5.13008 -1.18056,7.67616 0.35807,2.56229 -1.92236,2.27971 -3.71638,2.11769 -7.50172,-0.54298 -15.2191,2.9704 -19.664043,9.09505 5.241483,0.11636 10.487873,0.12276 15.724623,0.3935 0.96895,-0.23327 1.4706,0.65805 1.01178,1.46214 -0.72758,2.17495 -1.13113,4.69716 -2.41029,6.52019 H 95.615118 c -0.446416,2.52454 -0.326643,5.16701 0.04415,7.72875 h 11.480722 c 3.06757,0.14524 6.29476,-0.28238 9.26889,0.19845 -0.55758,2.62856 -1.58015,5.37938 -2.57991,7.85934 -4.07469,0.43558 -8.42362,0.003 -12.57394,0.27903 -0.47727,0.12949 -2.496831,-0.14688 -1.384952,0.73361 4.295672,5.2725 10.792312,8.56468 17.608262,8.77442 0.95644,0.0985 1.90038,0.0542 2.83859,-0.0525 a 54.828678,97.667828 68.539564 0 0 20.84546,-9.02547 c -3.99798,-2.1173 -7.47435,-5.21168 -9.91259,-9.04924 -0.99633,-1.11524 -1.07993,-3.56015 -2.99804,-3.12864 -2.26262,-0.29163 -4.78761,0.14213 -6.91965,-0.64966 -0.14475,-1.8292 1.07205,-3.58334 1.4969,-5.34048 0.92254,-1.24383 3.00214,-0.42573 4.41775,-0.92867 0.46522,-0.85692 -0.0243,-2.43253 0.11701,-3.54082 0.80941,-2.63123 -1.35465,-2.23997 -3.22531,-2.14823 -1.45697,0.0878 -4.27252,0.42334 -2.72326,-1.85733 0.88422,-1.39945 0.57824,-4.17829 2.42812,-4.52548 1.76937,-0.37837 3.77114,-0.0176 5.42699,-0.56653 3.91419,-8.67817 13.04524,-14.97063 22.63326,-14.94861 v -8.7e-4 c 0.30928,8.7e-4 0.61859,0.008 0.92867,0.022 1.48469,0.20165 3.689,-0.37189 4.97751,0.46051 0.11176,2.34189 -0.45837,4.72353 -0.92953,7.01973 -0.79402,1.14319 -2.65856,0.5107 -3.86818,0.7319 -5.52845,-0.32681 -10.7042,2.65793 -14.12681,6.81194 3.47479,0.23822 6.95379,0.28906 10.43671,0.44865 0.82086,0.20303 3.04121,-0.41703 2.64693,1.0457 -0.68279,1.62759 -0.80731,3.70428 -1.99219,5.0284 -4.55731,0.80468 -9.29572,-0.0647 -13.89019,0.53939 -0.37662,1.78405 -0.25123,3.83135 0.0873,5.67549 3.50363,0.005 7.00691,-0.01 10.51051,0.0115 1.73153,0.2261 3.81364,-0.36592 5.35999,0.53599 -0.0551,1.87373 -1.09996,3.79697 -1.75896,5.5118 -2.95082,0.54141 -6.16626,0.32733 -9.20443,0.63693 -1.16771,0.01 -2.38766,0.061 -0.93885,1.06607 2.6471,3.20759 6.45999,5.15178 10.50542,5.79167 a 54.828678,97.667828 68.539564 0 0 47.41478,-62.26299 54.828678,97.667828 68.539564 0 0 -56.8346,-38.396908 z M 104.108,76.751713 a 54.828678,97.667828 68.539564 0 0 -8.775295,2.607908 v 13.89274 h 38.500365 c 0.67886,0.156732 1.71155,-0.667152 1.55712,-1.405304 -4.65782,-5.301801 -9.89946,-10.056216 -14.83669,-15.095344 H 107.81589 Z M 89.828534,81.185574 A 54.828678,97.667828 68.539564 0 0 63.429701,93.248108 c 8.821147,0.06319 17.656773,-0.04874 26.477707,0.0049 -0.02642,-4.022353 -0.05252,-8.044527 -0.07894,-12.066767 z M 160.13266,104.7051 c 0.20671,0.003 0.41271,0.0131 0.61912,0.0246 5.46388,0.22189 10.19365,4.74853 11.02021,10.09579 1.28625,6.63447 -4.1876,13.56127 -10.92269,13.90122 -6.72839,0.85712 -13.33797,-5.24457 -12.98696,-12.02269 -0.32658,-6.30196 5.3713,-12.08292 11.64952,-11.99721 0.2067,-0.005 0.4141,-0.005 0.6208,-0.002 z m -103.96524,0.0653 c 1.140867,0.0131 2.287042,0.0174 3.422932,0.13392 4.799034,1.09085 8.754608,5.36319 9.341827,10.28068 1.041586,6.63678 -4.515331,13.36006 -11.227154,13.59165 -6.482917,0.61908 -12.820573,-5.10072 -12.75289,-11.6283 -0.497082,-6.24842 4.901962,-12.36211 11.215285,-12.37803 z m -30.417125,79.66801 a 54.828678,97.667828 68.539564 0 0 17.17488,8.31733 c -1.81392,-2.39377 -3.361398,-4.99246 -4.570413,-7.772 -2.693939,-0.0809 -5.387973,-0.14672 -8.081551,-0.23917 -1.443137,-0.228 -3.138374,0.1267 -4.522916,-0.30616 z"
         style="opacity:1;fill:#006cb1;fill-opacity:1;stroke:none;stroke-width:1.1274823;stroke-linejoin:round;stroke-miterlimit:4;stroke-dasharray:none;stroke-dashoffset:0;stroke-opacity:1"
         inkscape:connector-curvature="0" />
      <path
         inkscape:connector-curvature="0"
         id="path832-8"
         d="m 139.70352,71.397397 a 54.828678,97.667828 68.539564 0 0 -17.35807,1.124582 c 5.87195,5.870941 11.74388,11.741473 17.6159,17.612493 13.56944,2.32366 27.18717,4.384204 40.71475,6.942546 1.44113,0.0034 2.2843,1.299026 2.65371,2.53752 0.3509,3.754572 -0.0368,7.549392 -0.045,11.317062 -0.23537,1.71255 0.30711,4.06378 -1.33576,5.21666 -1.68837,0.71317 -3.63203,0.28625 -5.42021,0.42235 -1.30775,-0.15558 -2.90039,0.31304 -4.03527,-0.23662 -0.0998,-2.36878 -0.63288,-4.79179 -1.69535,-6.95018 -2.90281,-5.76669 -10.09409,-8.41241 -16.17497,-6.80431 -5.19848,1.11987 -9.53184,5.53314 -10.26625,10.86248 -0.3272,0.96735 0.1793,2.43473 -0.72003,3.02008 -23.53537,0.0348 -47.070716,0.0699 -70.606077,0.1052 -1.168032,-0.23723 -2.853947,0.50175 -3.690086,-0.39521 0.0097,-4.00961 -1.547839,-8.06626 -4.645044,-10.71915 -2.230126,-1.86515 -5.068341,-3.09489 -7.96621,-3.26943 -4.277661,-0.39999 -8.741744,0.95254 -11.700395,4.11838 -2.741759,2.60456 -3.642316,6.50415 -3.869036,10.12038 -2.059101,0.3501 -4.259614,0.0471 -6.372624,0.14836 -1.274776,0.36497 -1.919999,-0.70335 -2.618934,-1.56559 a 54.828678,97.667828 68.539564 0 0 -21.797879,42.58227 54.828678,97.667828 68.539564 0 0 13.32875,26.10879 c 0.439738,-3.10311 1.934157,-6.05852 2.79364,-9.08401 1.759256,-0.70003 3.927892,-0.20103 5.849348,-0.42661 2.371117,0.43046 0.707739,-3.00176 1.144089,-4.42369 -0.273715,-1.55443 0.406186,-4.05202 -0.44186,-5.03855 -3.21261,-0.23932 -6.593236,0.0737 -9.708205,-0.48764 0.692884,-3.07999 2.051785,-6.0681 2.955629,-9.13406 1.196145,-1.29032 3.659752,-0.25684 5.360842,-0.58857 1.529618,-0.4484 4.323003,0.98021 4.911351,-0.86593 4.304886,-9.60729 12.621029,-17.32529 22.47975,-21.00999 4.280824,-1.79057 8.876669,-2.47494 13.4848,-2.55702 0.658301,-0.0115 1.316455,-0.0115 1.974375,0 1.118795,-0.008 2.237665,-0.003 3.355935,0.0348 1.32812,0.23789 3.446325,-0.28021 4.170113,1.14323 -0.651937,3.91327 -1.342463,7.91606 -2.280545,11.75129 -2.890554,-0.41558 -5.975957,-0.41498 -8.892332,-0.21797 -7.746521,0.94747 -15.078848,5.10407 -19.609779,11.52569 6.766531,0.46155 13.680399,-0.0704 20.491803,0.39608 1.511442,0.0588 0.524595,1.80337 0.287506,2.61214 -0.950688,2.33932 -1.393761,5.08865 -2.782619,7.11386 -7.436848,0.1006 -14.873281,0.20116 -22.310129,0.30192 -0.494932,3.11988 -0.397804,6.36356 0.179798,9.4224 h 23.205738 c 2.197656,-0.61617 3.207812,0.59167 1.897205,2.52988 -1.024525,2.43782 -1.415443,5.33996 -2.840291,7.48448 -5.87864,0.1441 -11.757619,0.28795 -17.63625,0.43255 3.32312,4.33741 7.748848,7.90844 12.903003,9.82863 1.802216,0.85919 3.709197,1.28987 5.657678,1.50028 a 54.828678,97.667828 68.539564 0 0 29.131405,-3.77488 c -5.885925,-3.49081 -10.629264,-8.83779 -13.762979,-14.91132 -1.264679,-0.7324 -3.008762,-0.18197 -4.425386,-0.3774 -1.97497,-0.17672 -4.214395,0.32736 -6.041866,-0.4232 0.324493,-2.55214 1.560682,-5.00983 2.239831,-7.51671 1.700449,-0.70211 3.825005,-0.0962 5.687356,-0.29854 -0.04095,-2.01648 -0.08242,-4.03299 -0.122974,-6.04947 0.662597,-2.54625 -2.51198,-1.25921 -4.036953,-1.61989 -1.134406,-0.42107 -4.510922,0.88496 -3.913134,-1.14409 1.017325,-2.32509 1.396292,-5.13117 2.816541,-7.15285 2.464962,-0.14623 5.278283,0.28046 7.526891,-0.2222 5.088599,-11.49626 17.25159,-19.61041 29.88621,-19.36131 0.40102,-8.6e-4 0.80245,-0.007 1.20347,-0.003 1.85034,0.21218 4.05017,-0.34283 5.71025,0.55973 0.0414,2.56864 -0.81798,5.13009 -1.18056,7.67616 0.35807,2.56231 -1.92236,2.2797 -3.71637,2.11772 -7.50173,-0.543 -15.21912,2.97038 -19.664066,9.09503 5.241486,0.11636 10.487896,0.12276 15.724636,0.39352 0.96895,-0.2333 1.47061,0.65803 1.01178,1.46212 -0.72758,2.17493 -1.13113,4.69717 -2.41029,6.52021 H 94.090976 c -0.446416,2.52455 -0.326627,5.16699 0.04415,7.72873 h 11.480734 c 3.06757,0.14524 6.29478,-0.28235 9.2689,0.19845 -0.55759,2.62859 -1.58016,5.37941 -2.57991,7.85936 -4.07469,0.43561 -8.42362,0.003 -12.573959,0.27901 -0.47727,0.12949 -2.496833,-0.14688 -1.384938,0.73364 4.295677,5.27249 10.792317,8.56467 17.608257,8.77442 0.95645,0.0985 1.90039,0.0542 2.8386,-0.0525 a 54.828678,97.667828 68.539564 0 0 20.84546,-9.02548 c -3.99799,-2.11729 -7.47435,-5.21168 -9.9126,-9.04924 -0.99632,-1.11524 -1.07992,-3.56015 -2.99803,-3.12864 -2.26262,-0.29163 -4.78762,0.14213 -6.91965,-0.64965 -0.14475,-1.82921 1.07205,-3.58334 1.4969,-5.34048 0.92253,-1.24383 3.00215,-0.42574 4.41774,-0.92868 0.46523,-0.85692 -0.0243,-2.43253 0.11702,-3.54082 0.80941,-2.63123 -1.35468,-2.23997 -3.22534,-2.14823 -1.45695,0.0878 -4.27252,0.42334 -2.72325,-1.85733 0.88422,-1.39945 0.57824,-4.1783 2.42812,-4.52549 1.76937,-0.37837 3.77114,-0.0176 5.42699,-0.56654 3.91418,-8.67817 13.04524,-14.97063 22.63326,-14.9486 v -8.7e-4 c 0.30929,8.7e-4 0.61859,0.008 0.92867,0.022 1.48469,0.20165 3.689,-0.37187 4.9775,0.46053 0.11177,2.34187 -0.45834,4.72353 -0.92951,7.01973 -0.79401,1.14318 -2.65857,0.51069 -3.8682,0.73192 -5.52844,-0.32686 -10.7042,2.65791 -14.1268,6.81194 3.47479,0.23821 6.95379,0.28906 10.43672,0.44861 0.82085,0.20306 3.0412,-0.417 2.64694,1.04571 -0.68281,1.62762 -0.80733,3.70431 -1.99221,5.02843 -4.5573,0.80468 -9.29571,-0.0647 -13.89018,0.53938 -0.37663,1.78403 -0.25125,3.83131 0.0873,5.67547 3.50361,0.005 7.00691,-0.01 10.51049,0.0115 1.73154,0.22612 3.81367,-0.3659 5.36,0.53601 -0.0551,1.87373 -1.09997,3.79699 -1.75895,5.5118 -2.95081,0.54143 -6.16627,0.32735 -9.20444,0.63694 -1.16771,0.01 -2.38765,0.0611 -0.93884,1.06605 2.6471,3.20759 6.45999,5.15179 10.50542,5.79167 a 54.828678,97.667828 68.539564 0 0 47.41478,-62.263 54.828678,97.667828 68.539564 0 0 -56.83461,-38.396903 z m -37.11966,5.007175 a 54.828678,97.667828 68.539564 0 0 -8.775298,2.607924 v 13.892725 h 38.500388 c 0.67884,0.156732 1.71153,-0.667139 1.55711,-1.405308 -4.65784,-5.301782 -9.89945,-10.056212 -14.83668,-15.095341 H 106.29176 Z M 88.304391,80.838449 A 54.828678,97.667828 68.539564 0 0 61.905567,92.900984 c 8.821144,0.06319 17.656776,-0.04874 26.477699,0.0049 -0.02642,-4.022369 -0.05252,-8.044543 -0.07894,-12.066785 z m 70.304149,23.519531 c 0.2067,0.003 0.41271,0.0131 0.61912,0.0246 5.46388,0.22187 10.19364,4.74853 11.0202,10.09579 1.28626,6.63448 -4.1876,13.56127 -10.92269,13.90121 -6.72838,0.85713 -13.33797,-5.24456 -12.98695,-12.02268 -0.32658,-6.30196 5.37128,-12.08293 11.64951,-11.99723 0.20671,-0.005 0.4141,-0.005 0.62081,-0.002 z m -103.965254,0.0653 c 1.140867,0.0131 2.287042,0.0174 3.422934,0.13392 4.799032,1.09085 8.754601,5.3632 9.341819,10.28066 1.041592,6.6368 -4.515322,13.36007 -11.227148,13.59167 -6.482917,0.61909 -12.820572,-5.10073 -12.75289,-11.62829 -0.497082,-6.24843 4.901962,-12.36212 11.215285,-12.37804 z m -30.417125,79.668 a 54.828678,97.667828 68.539564 0 0 17.17488,8.31734 c -1.81392,-2.39378 -3.361398,-4.99245 -4.570413,-7.77199 -2.693938,-0.0809 -5.387972,-0.14672 -8.081549,-0.23917 -1.443138,-0.22801 -3.138376,0.1267 -4.522918,-0.30618 z"
         style="opacity:1;fill:#45b7ff;fill-opacity:1;stroke:none;stroke-width:1.1274823;stroke-linejoin:round;stroke-miterlimit:4;stroke-dasharray:none;stroke-dashoffset:0;stroke-opacity:1" />
    </g>
  </g>
</svg>
